HIERARCHY
ROOT hip
{
  OFFSET 0 0 0
  CHANNELS 6 Xposition Yposition Zposition Zrotation Yrotation Xrotation
  JOINT abdomen
  {
    OFFSET 0 20.6881 -0.73152
    CHANNELS 3 Zrotation Xrotation Yrotation
    JOINT chest
    {
      OFFSET 0 11.7043 -0.48768
      CHANNELS 3 Zrotation Xrotation Yrotation
      JOINT neck
      {
        OFFSET 0 22.1894 -2.19456
        CHANNELS 3 Zrotation Xrotation Yrotation
        JOINT head
        {
          OFFSET -0.24384 7.07133 1.2192
          CHANNELS 3 Zrotation Xrotation Yrotation
          JOINT leftEye
          {
            OFFSET 4.14528 8.04674 8.04672
            CHANNELS 3 Zrotation Xrotation Yrotation
            End Site
            {
              OFFSET 1 0 0
            }
          }
          JOINT rightEye
          {
            OFFSET -3.6576 8.04674 8.04672
            CHANNELS 3 Zrotation Xrotation Yrotation
            End Site
            {
              OFFSET 1 0 0
            }
          }
        }
      }
      JOINT rCollar
      {
        OFFSET -2.68224 19.2634 -4.8768
        CHANNELS 3 Zrotation Xrotation Yrotation
        JOINT rShldr
        {
          OFFSET -8.77824 -1.95073 1.46304
          CHANNELS 3 Zrotation Xrotation Yrotation
          JOINT rForeArm
          {
            OFFSET -28.1742 -1.7115 0.48768
            CHANNELS 3 Zrotation Xrotation Yrotation
            JOINT rHand
            {
              OFFSET -22.5879 0.773209 7.07136
              CHANNELS 3 Zrotation Xrotation Yrotation
              JOINT rThumb1
              {
                OFFSET -1.2192 -0.487915 3.41376
                CHANNELS 3 Zrotation Xrotation Yrotation
                JOINT rThumb2
                {
                  OFFSET -3.37035 -0.52449 3.41376
                  CHANNELS 3 Zrotation Xrotation Yrotation
                  End Site
                  {
                    OFFSET -1.78271 -1.18214 1.43049
                  }
                }
              }
              JOINT rIndex1
              {
                OFFSET -7.75947 0.938293 5.60832
                CHANNELS 3 Zrotation Xrotation Yrotation
                JOINT rIndex2
                {
                  OFFSET -2.54057 -0.884171 1.56538
                  CHANNELS 3 Zrotation Xrotation Yrotation
                  End Site
                  {
                    OFFSET -1.62519 -0.234802 1.16502
                  }
                }
              }
              JOINT rMid1
              {
                OFFSET -8.24714 1.18213 3.41376
                CHANNELS 3 Zrotation Xrotation Yrotation
                JOINT rMid2
                {
                  OFFSET -3.10165 -0.590103 1.0647
                  CHANNELS 3 Zrotation Xrotation Yrotation
                  End Site
                  {
                    OFFSET -2.48547 -0.328903 0.83742
                  }
                }
              }
              JOINT rRing1
              {
                OFFSET -8.82822 0.546677 1.51678
                CHANNELS 3 Zrotation Xrotation Yrotation
                JOINT rRing2
                {
                  OFFSET -2.60934 -0.819778 -0.0198488
                  CHANNELS 3 Zrotation Xrotation Yrotation
                  End Site
                  {
                    OFFSET -2.33842 -0.294052 0.168128
                  }
                }
              }
              JOINT rPinky1
              {
                OFFSET -8.27202 -0.0477905 -0.4584
                CHANNELS 3 Zrotation Xrotation Yrotation
                JOINT rPinky2
                {
                  OFFSET -1.82734 -0.647385 -0.700984
                  CHANNELS 3 Zrotation Xrotation Yrotation
                  End Site
                  {
                    OFFSET -1.69225 -0.51767 -0.607171
                  }
                }
              }
            }
          }
        }
      }
      JOINT lCollar
      {
        OFFSET 2.68224 19.2634 -4.8768
        CHANNELS 3 Zrotation Xrotation Yrotation
        JOINT lShldr
        {
          OFFSET 8.77824 -1.95073 1.46304
          CHANNELS 3 Zrotation Xrotation Yrotation
          JOINT lForeArm
          {
            OFFSET 28.1742 -1.7115 0.48768
            CHANNELS 3 Zrotation Xrotation Yrotation
            JOINT lHand
            {
              OFFSET 22.5879 0.773209 7.07136
              CHANNELS 3 Zrotation Xrotation Yrotation
              JOINT lThumb1
              {
                OFFSET 1.2192 -0.487915 3.41376
                CHANNELS 3 Zrotation Xrotation Yrotation
                JOINT lThumb2
                {
                  OFFSET 3.37035 -0.52449 3.41376
                  CHANNELS 3 Zrotation Xrotation Yrotation
                  End Site
                  {
                    OFFSET 1.78271 -1.18214 1.43049
                  }
                }
              }
              JOINT lIndex1
              {
                OFFSET 7.75947 0.938293 5.60832
                CHANNELS 3 Zrotation Xrotation Yrotation
                JOINT lIndex2
                {
                  OFFSET 2.54057 -0.884171 1.56538
                  CHANNELS 3 Zrotation Xrotation Yrotation
                  End Site
                  {
                    OFFSET 1.62519 -0.234802 1.16502
                  }
                }
              }
              JOINT lMid1
              {
                OFFSET 8.24714 1.18213 3.41376
                CHANNELS 3 Zrotation Xrotation Yrotation
                JOINT lMid2
                {
                  OFFSET 3.10165 -0.590103 1.0647
                  CHANNELS 3 Zrotation Xrotation Yrotation
                  End Site
                  {
                    OFFSET 2.48547 -0.328903 0.83742
                  }
                }
              }
              JOINT lRing1
              {
                OFFSET 8.82822 0.546677 1.51678
                CHANNELS 3 Zrotation Xrotation Yrotation
                JOINT lRing2
                {
                  OFFSET 2.60934 -0.819778 -0.0198488
                  CHANNELS 3 Zrotation Xrotation Yrotation
                  End Site
                  {
                    OFFSET 2.33842 -0.294052 0.168128
                  }
                }
              }
              JOINT lPinky1
              {
                OFFSET 8.27202 -0.0477905 -0.4584
                CHANNELS 3 Zrotation Xrotation Yrotation
                JOINT lPinky2
                {
                  OFFSET 1.82734 -0.647385 -0.700984
                  CHANNELS 3 Zrotation Xrotation Yrotation
                  End Site
                  {
                    OFFSET 1.69225 -0.51767 -0.607171
                  }
                }
              }
            }
          }
        }
      }
    }
  }
  JOINT rButtock
  {
    OFFSET -8.77824 4.35084 1.2192
    CHANNELS 3 Zrotation Xrotation Yrotation
    JOINT rThigh
    {
      OFFSET 0 -1.70687 -2.19456
      CHANNELS 3 Zrotation Xrotation Yrotation
      JOINT rShin
      {
        OFFSET 0 -36.8199 0.73152
        CHANNELS 3 Zrotation Xrotation Yrotation
        JOINT rFoot
        {
          OFFSET 0.73152 -45.1104 -5.12064
          CHANNELS 3 Zrotation Xrotation Yrotation
          End Site
          {
            OFFSET -1.1221 -3.69964 12.103
          }
        }
      }
    }
  }
  JOINT lButtock
  {
    OFFSET 8.77824 4.35084 1.2192
    CHANNELS 3 Zrotation Xrotation Yrotation
    JOINT lThigh
    {
      OFFSET 0 -1.70687 -2.19456
      CHANNELS 3 Zrotation Xrotation Yrotation
      JOINT lShin
      {
        OFFSET 0 -36.8199 0.73152
        CHANNELS 3 Zrotation Xrotation Yrotation
        JOINT lFoot
        {
          OFFSET -0.73152 -45.1104 -5.12064
          CHANNELS 3 Zrotation Xrotation Yrotation
          End Site
          {
            OFFSET 1.1221 -3.69964 12.103
          }
        }
      }
    }
  }
}
MOTION
Frames:	4
Frame Time:	0.03333
-32.5712 70.4374 -11.0968 185.085 -48.0969 185.14299999999997 -1.37827 5.4413 13.0723 0.485893 -7.001909999999999 3.67438 -7.381289999999999 22.3059 -17.8011 12.544699999999999 -32.708600000000004 -32.390600000000006 -0.0 0.0 0.0 -0.0 0.0 0.0 1.91177e-13 -5.09683e-13 -5.397969999999999e-13 16.3497 -28.1558 39.7909 -8.89756 -3.49781 15.749699999999999 -2.02413 36.9121 6.05988 1.6011400000000001e-09 5.4374e-09 5.26269e-10 2.7732099999999998e-09 9.30498e-09 8.66435e-10 1.6011400000000001e-09 5.43741e-09 5.262670000000001e-10 7.730909999999999 5.47488 0.417314 1.6011400000000001e-09 5.43741e-09 5.26272e-10 2.90554 0.965183 0.102902 1.60115e-09 5.43741e-09 5.26272e-10 10.278600000000003 0.731801 0.0259123 1.6011400000000001e-09 5.43741e-09 5.26283e-10 2.22167 -0.733487 -0.20892000000000002 1.9114600000000004e-13 -5.09685e-13 -5.39971e-13 -106.146 48.021699999999996 43.69879999999999 28.2395 -38.8806 -81.9389 7.16933 -57.868700000000004 12.9306 1.1335499999999999e-09 3.25291e-10 -2.9386099999999996e-10 1.96345e-09 5.6434e-10 -4.62088e-10 1.1335499999999999e-09 3.25295e-10 -2.93863e-10 -7.730909999999999 5.47488 -0.417314 1.1335499999999999e-09 3.25294e-10 -2.9385800000000004e-10 -2.90554 0.965183 -0.102902 1.13354e-09 3.25293e-10 -2.93865e-10 -10.278600000000003 0.731801 -0.0259123 1.1335499999999999e-09 3.25293e-10 -2.93873e-10 -2.22167 -0.733487 0.20892000000000002 -2.03217e-16 0.0 -3.88251e-19 8.07627 -6.195949999999999 -8.66334 -0.20552 42.1834 1.77187 -22.6039 -23.0151 -39.2378 2.03217e-16 0.0 3.88251e-19 -19.1209 -58.3049 -28.5552 1.96794 68.6826 -2.07701 -5.237230000000001 -17.6016 -13.507300000000003
-32.5823 70.0866 -11.4639 184.707 -48.5797 185.631 -1.3373800000000002 5.35266 12.9843 0.386263 -7.05602 3.6431399999999994 -7.35031 22.3489 -17.8437 12.3423 -32.6194 -32.522600000000004 -0.0 0.0 0.0 -0.0 0.0 0.0 1.26836e-13 -5.923360000000001e-14 -3.8156700000000004e-13 16.6722 -28.4245 39.6589 -8.88457 -3.4905100000000004 15.725599999999996 -2.10025 37.47749999999999 6.185810000000001 -4.9734e-10 -1.91699e-09 -2.44038e-10 -8.669310000000001e-10 -3.2811899999999995e-09 -4.01198e-10 -4.973390000000001e-10 -1.91699e-09 -2.4404100000000003e-10 7.730909999999999 5.47488 0.417314 -4.973420000000001e-10 -1.91699e-09 -2.4404100000000003e-10 2.90554 0.965183 0.102902 -4.97331e-10 -1.91699e-09 -2.44038e-10 10.278600000000003 0.731801 0.0259123 -4.973450000000001e-10 -1.91699e-09 -2.44025e-10 2.22167 -0.733487 -0.20892000000000002 1.2682200000000003e-13 -5.92423e-14 -3.8171599999999993e-13 -106.054 47.8682 43.6257 28.238300000000002 -38.8909 -81.9564 7.12613 -57.7684 12.8795 -1.13234e-09 7.73867e-10 -4.684230000000002e-10 -1.92323e-09 1.44681e-09 -8.670610000000001e-10 -1.13234e-09 7.7387e-10 -4.68426e-10 -7.730909999999999 5.47488 -0.417314 -1.13234e-09 7.7387e-10 -4.684159999999999e-10 -2.90554 0.965183 -0.102902 -1.13234e-09 7.7387e-10 -4.684230000000002e-10 -10.278600000000003 0.731801 -0.0259123 -1.13234e-09 7.7387e-10 -4.68429e-10 -2.22167 -0.733487 0.20892000000000002 -2.03217e-16 0.0 -3.88251e-19 8.40586 -6.35864 -8.63981 -0.205999 42.5503 1.8209299999999997 -23.469 -23.4508 -40.0203 2.03217e-16 0.0 3.88251e-19 -19.989200000000004 -58.7257 -29.3972 2.0761300000000005 69.441 -2.18129 -5.36256 -17.9244 -13.591
-32.6314 69.7252 -11.8511 184.28600000000003 -48.9106 186.121 -1.4008199999999997 5.301480000000001 12.9854 0.328031 -7.143349999999999 3.63859 -7.42328 22.2388 -17.860699999999998 12.283 -32.3878 -32.5777 -0.0 0.0 0.0 -0.0 0.0 0.0 9.55704e-14 -9.94941e-13 7.42218e-13 16.7076 -28.522600000000004 39.4561 -8.82767 -3.45877 15.620500000000002 -2.2145400000000004 38.3021 6.37258 -5.17923e-10 3.95394e-09 2.15616e-09 -8.16872e-10 7.04245e-09 3.72803e-09 -5.1792e-10 3.95395e-09 2.15616e-09 7.730909999999999 5.47488 0.417314 -5.179239999999999e-10 3.95394e-09 2.15616e-09 2.90554 0.965183 0.102902 -5.17914e-10 3.95394e-09 2.15616e-09 10.278600000000003 0.731801 0.0259123 -5.1793e-10 3.95394e-09 2.15617e-09 2.22167 -0.733487 -0.20892000000000002 9.5527e-14 -9.94943e-13 7.41998e-13 -106.039 47.5538 43.5476 28.233900000000002 -38.9257 -82.01749999999998 7.07535 -57.64939999999999 12.819500000000001 -2.33966e-09 -1.02865e-10 2.7598e-10 -4.03931e-09 -9.40072e-11 3.75008e-10 -2.33966e-09 -1.02864e-10 2.75982e-10 -7.730909999999999 5.47488 -0.417314 -2.33966e-09 -1.0287e-10 2.75985e-10 -2.90554 0.965183 -0.102902 -2.3396700000000005e-09 -1.0286300000000001e-10 2.75984e-10 -10.278600000000003 0.731801 -0.0259123 -2.33966e-09 -1.0286300000000001e-10 2.75978e-10 -2.22167 -0.733487 0.20892000000000002 -2.03217e-16 0.0 -3.88251e-19 8.5892 -6.497979999999999 -8.633 -0.206963 42.9636 1.87159 -24.358399999999996 -23.7622 -40.906699999999994 2.03217e-16 0.0 3.88251e-19 -20.9424 -59.072399999999995 -30.287000000000003 2.19999 70.24480000000001 -2.3011799999999996 -5.43055 -18.36 -13.4824
-32.747 69.3803 -12.2844 183.728 -49.0121 186.62700000000004 -1.6245200000000002 5.35439 13.139700000000001 0.30504200000000004 -7.2267 3.67747 -7.52856 22.1056 -17.8735 12.2925 -32.16439999999999 -32.6099 -0.0 0.0 0.0 -0.0 0.0 0.0 7.96124e-14 -1.7161099999999996e-12 1.5046e-12 16.6321 -28.5266 39.1841 -8.77159 -3.42754 15.5171 -2.31083 38.9628 6.52614 -8.314950000000001e-11 8.99995e-09 3.73561e-09 -1.13081e-11 1.5839e-08 6.43169e-09 -8.31457e-11 8.99995e-09 3.7356e-09 7.730909999999999 5.47488 0.417314 -8.31487e-11 8.99995e-09 3.7356e-09 2.90554 0.965183 0.102902 -8.314280000000001e-11 8.99995e-09 3.7356e-09 10.278600000000003 0.731801 0.0259123 -8.3158e-11 8.99995e-09 3.73561e-09 2.22167 -0.733487 -0.20892000000000002 7.95199e-14 -1.7161099999999996e-12 1.5043e-12 -106.022 47.1902 43.4579 28.2291 -38.9641 -82.0848 7.04948 -57.5885 12.7889 -2.61389e-09 -8.47962e-10 8.46088e-10 -4.54142e-09 -1.4288499999999999e-09 1.35517e-09 -2.61389e-09 -8.479630000000001e-10 8.460939999999998e-10 -7.730909999999999 5.47488 -0.417314 -2.61389e-09 -8.479740000000001e-10 8.46091e-10 -2.90554 0.965183 -0.102902 -2.61389e-09 -8.47962e-10 8.46095e-10 -10.278600000000003 0.731801 -0.0259123 -2.61388e-09 -8.47961e-10 8.46088e-10 -2.22167 -0.733487 0.20892000000000002 -2.03217e-16 0.0 -3.88251e-19 8.597240000000001 -6.37887 -8.59136 -0.206821 43.2675 1.91636 -25.1868 -24.0637 -41.7073 2.03217e-16 0.0 3.88251e-19 -21.7027 -59.2002 -30.826200000000007 2.3274900000000005 71.0128 -2.42673 -5.43219 -18.8677 -13.195299999999998
